<?xml version="1.0" encoding="UTF-8"?>
<svg width="800" height="500" viewBox="0 0 800 500" xmlns="http://www.w3.org/2000/svg">
  <g fill="#FFFFFF" opacity="0.95">
    <g transform="translate(60,60)">
      <ellipse cx="60" cy="45" rx="55" ry="38"/>
      <ellipse cx="120" cy="35" rx="65" ry="45"/>
      <ellipse cx="175" cy="55" rx="55" ry="36"/>
      <rect x="45" y="55" width="165" height="45" rx="22"/>
    </g>

    <g transform="translate(420,40)">
      <ellipse cx="55" cy="48" rx="52" ry="36"/>
      <ellipse cx="115" cy="34" rx="66" ry="46"/>
      <ellipse cx="175" cy="56" rx="54" ry="35"/>
      <rect x="40" y="56" width="170" height="44" rx="22"/>
    </g>

    <g transform="translate(140,220)">
      <ellipse cx="55" cy="46" rx="52" ry="36"/>
      <ellipse cx="115" cy="34" rx="66" ry="46"/>
      <ellipse cx="175" cy="56" rx="54" ry="35"/>
      <rect x="40" y="56" width="170" height="44" rx="22"/>
    </g>

    <g transform="translate(520,250)">
      <ellipse cx="60" cy="45" rx="55" ry="38"/>
      <ellipse cx="120" cy="35" rx="65" ry="45"/>
      <ellipse cx="175" cy="55" rx="55" ry="36"/>
      <rect x="45" y="55" width="165" height="45" rx="22"/>
    </g>
  </g>
</svg>
